HIERARCHY
ROOT hip
{
  OFFSET 0 0 0
  CHANNELS 6 Xposition Yposition Zposition Zrotation Yrotation Xrotation
  JOINT abdomen
  {
    OFFSET 0 20.6881 -0.73152
    CHANNELS 3 Zrotation Xrotation Yrotation
    JOINT chest
    {
      OFFSET 0 11.7043 -0.48768
      CHANNELS 3 Zrotation Xrotation Yrotation
      JOINT neck
      {
        OFFSET 0 22.1894 -2.19456
        CHANNELS 3 Zrotation Xrotation Yrotation
        JOINT head
        {
          OFFSET -0.24384 7.07133 1.2192
          CHANNELS 3 Zrotation Xrotation Yrotation
          JOINT leftEye
          {
            OFFSET 4.14528 8.04674 8.04672
            CHANNELS 3 Zrotation Xrotation Yrotation
            End Site
            {
              OFFSET 1 0 0
            }
          }
          JOINT rightEye
          {
            OFFSET -3.6576 8.04674 8.04672
            CHANNELS 3 Zrotation Xrotation Yrotation
            End Site
            {
              OFFSET 1 0 0
            }
          }
        }
      }
      JOINT rCollar
      {
        OFFSET -2.68224 19.2634 -4.8768
        CHANNELS 3 Zrotation Xrotation Yrotation
        JOINT rShldr
        {
          OFFSET -8.77824 -1.95073 1.46304
          CHANNELS 3 Zrotation Xrotation Yrotation
          JOINT rForeArm
          {
            OFFSET -28.1742 -1.7115 0.48768
            CHANNELS 3 Zrotation Xrotation Yrotation
            JOINT rHand
            {
              OFFSET -22.5879 0.773209 7.07136
              CHANNELS 3 Zrotation Xrotation Yrotation
              JOINT rThumb1
              {
                OFFSET -1.2192 -0.487915 3.41376
                CHANNELS 3 Zrotation Xrotation Yrotation
                JOINT rThumb2
                {
                  OFFSET -3.37035 -0.52449 3.41376
                  CHANNELS 3 Zrotation Xrotation Yrotation
                  End Site
                  {
                    OFFSET -1.78271 -1.18214 1.43049
                  }
                }
              }
              JOINT rIndex1
              {
                OFFSET -7.75947 0.938293 5.60832
                CHANNELS 3 Zrotation Xrotation Yrotation
                JOINT rIndex2
                {
                  OFFSET -2.54057 -0.884171 1.56538
                  CHANNELS 3 Zrotation Xrotation Yrotation
                  End Site
                  {
                    OFFSET -1.62519 -0.234802 1.16502
                  }
                }
              }
              JOINT rMid1
              {
                OFFSET -8.24714 1.18213 3.41376
                CHANNELS 3 Zrotation Xrotation Yrotation
                JOINT rMid2
                {
                  OFFSET -3.10165 -0.590103 1.0647
                  CHANNELS 3 Zrotation Xrotation Yrotation
                  End Site
                  {
                    OFFSET -2.48547 -0.328903 0.83742
                  }
                }
              }
              JOINT rRing1
              {
                OFFSET -8.82822 0.546677 1.51678
                CHANNELS 3 Zrotation Xrotation Yrotation
                JOINT rRing2
                {
                  OFFSET -2.60934 -0.819778 -0.0198488
                  CHANNELS 3 Zrotation Xrotation Yrotation
                  End Site
                  {
                    OFFSET -2.33842 -0.294052 0.168128
                  }
                }
              }
              JOINT rPinky1
              {
                OFFSET -8.27202 -0.0477905 -0.4584
                CHANNELS 3 Zrotation Xrotation Yrotation
                JOINT rPinky2
                {
                  OFFSET -1.82734 -0.647385 -0.700984
                  CHANNELS 3 Zrotation Xrotation Yrotation
                  End Site
                  {
                    OFFSET -1.69225 -0.51767 -0.607171
                  }
                }
              }
            }
          }
        }
      }
      JOINT lCollar
      {
        OFFSET 2.68224 19.2634 -4.8768
        CHANNELS 3 Zrotation Xrotation Yrotation
        JOINT lShldr
        {
          OFFSET 8.77824 -1.95073 1.46304
          CHANNELS 3 Zrotation Xrotation Yrotation
          JOINT lForeArm
          {
            OFFSET 28.1742 -1.7115 0.48768
            CHANNELS 3 Zrotation Xrotation Yrotation
            JOINT lHand
            {
              OFFSET 22.5879 0.773209 7.07136
              CHANNELS 3 Zrotation Xrotation Yrotation
              JOINT lThumb1
              {
                OFFSET 1.2192 -0.487915 3.41376
                CHANNELS 3 Zrotation Xrotation Yrotation
                JOINT lThumb2
                {
                  OFFSET 3.37035 -0.52449 3.41376
                  CHANNELS 3 Zrotation Xrotation Yrotation
                  End Site
                  {
                    OFFSET 1.78271 -1.18214 1.43049
                  }
                }
              }
              JOINT lIndex1
              {
                OFFSET 7.75947 0.938293 5.60832
                CHANNELS 3 Zrotation Xrotation Yrotation
                JOINT lIndex2
                {
                  OFFSET 2.54057 -0.884171 1.56538
                  CHANNELS 3 Zrotation Xrotation Yrotation
                  End Site
                  {
                    OFFSET 1.62519 -0.234802 1.16502
                  }
                }
              }
              JOINT lMid1
              {
                OFFSET 8.24714 1.18213 3.41376
                CHANNELS 3 Zrotation Xrotation Yrotation
                JOINT lMid2
                {
                  OFFSET 3.10165 -0.590103 1.0647
                  CHANNELS 3 Zrotation Xrotation Yrotation
                  End Site
                  {
                    OFFSET 2.48547 -0.328903 0.83742
                  }
                }
              }
              JOINT lRing1
              {
                OFFSET 8.82822 0.546677 1.51678
                CHANNELS 3 Zrotation Xrotation Yrotation
                JOINT lRing2
                {
                  OFFSET 2.60934 -0.819778 -0.0198488
                  CHANNELS 3 Zrotation Xrotation Yrotation
                  End Site
                  {
                    OFFSET 2.33842 -0.294052 0.168128
                  }
                }
              }
              JOINT lPinky1
              {
                OFFSET 8.27202 -0.0477905 -0.4584
                CHANNELS 3 Zrotation Xrotation Yrotation
                JOINT lPinky2
                {
                  OFFSET 1.82734 -0.647385 -0.700984
                  CHANNELS 3 Zrotation Xrotation Yrotation
                  End Site
                  {
                    OFFSET 1.69225 -0.51767 -0.607171
                  }
                }
              }
            }
          }
        }
      }
    }
  }
  JOINT rButtock
  {
    OFFSET -8.77824 4.35084 1.2192
    CHANNELS 3 Zrotation Xrotation Yrotation
    JOINT rThigh
    {
      OFFSET 0 -1.70687 -2.19456
      CHANNELS 3 Zrotation Xrotation Yrotation
      JOINT rShin
      {
        OFFSET 0 -36.8199 0.73152
        CHANNELS 3 Zrotation Xrotation Yrotation
        JOINT rFoot
        {
          OFFSET 0.73152 -45.1104 -5.12064
          CHANNELS 3 Zrotation Xrotation Yrotation
          End Site
          {
            OFFSET -1.1221 -3.69964 12.103
          }
        }
      }
    }
  }
  JOINT lButtock
  {
    OFFSET 8.77824 4.35084 1.2192
    CHANNELS 3 Zrotation Xrotation Yrotation
    JOINT lThigh
    {
      OFFSET 0 -1.70687 -2.19456
      CHANNELS 3 Zrotation Xrotation Yrotation
      JOINT lShin
      {
        OFFSET 0 -36.8199 0.73152
        CHANNELS 3 Zrotation Xrotation Yrotation
        JOINT lFoot
        {
          OFFSET -0.73152 -45.1104 -5.12064
          CHANNELS 3 Zrotation Xrotation Yrotation
          End Site
          {
            OFFSET 1.1221 -3.69964 12.103
          }
        }
      }
    }
  }
}
MOTION
Frames:	4
Frame Time:	0.03333
-0.12396000092849135 53.367698192596436 1.2273999862372875 7.838925838470459 31.76490020751953 0.30275389552116394 -16.39790916442871 14.257192611694336 6.859925746917725 6.3912787437438965 -9.51956558227539 2.1912472248077393 -9.627577781677246 16.371200561523438 -12.459901809692383 9.987058639526367 -22.916996002197266 -22.405399322509766 -0.0 0.0 -0.0 -0.0 0.0 -0.0 -0.0 0.0 -0.0 34.383602142333984 17.234195709228516 31.523902893066406 -14.838600158691406 -7.651435375213623 27.257099151611328 -0.4703785181045532 19.118816375732422 2.7925398349761963 -0.0 0.0 -0.0 -0.0 0.0 -0.0 -0.0 0.0 -0.0 7.73087739944458 5.47489595413208 0.41732463240623474 -0.0 0.0 -0.0 2.9054994583129883 0.9650753736495972 0.10300876200199127 -0.0 0.0 -0.0 10.278595924377441 0.7317469120025635 0.026285577565431595 -0.0 0.0 -0.0 2.221662759780884 -0.7335850596427917 -0.20831839740276337 -0.0 0.0 -0.0 -111.41899108886719 48.089900970458984 49.09960174560547 28.031190872192383 -40.25321578979492 -84.37188720703125 2.4070165157318115 -39.492767333984375 6.657430171966553 -0.0 0.0 -0.0 -0.0 0.0 -0.0 -0.0 0.0 -0.0 -7.73087739944458 5.47489595413208 -0.41732463240623474 -0.0 0.0 -0.0 -2.9054994583129883 0.9650753736495972 -0.10300876200199127 -0.0 0.0 -0.0 -10.278595924377441 0.7317469120025635 -0.026285577565431595 -0.0 0.0 -0.0 -2.221662759780884 -0.7335850596427917 0.20831839740276337 -0.0 0.0 -0.0 -50.6824836730957 -51.75889205932617 -37.09088134765625 -0.9438002109527588 57.50989532470703 1.293548345565796 0.02793833613395691 10.214103698730469 11.771797180175781 -0.0 0.0 -0.0 13.903090476989746 2.599703788757324 0.1119016706943512 0.2144320160150528 53.745887756347656 -3.4806385040283203 13.180209159851074 -20.712995529174805 38.00619888305664
-0.2629700000397861 53.363198041915894 2.2904000245034695 7.3380022048950195 32.37900161743164 0.7950076460838318 -16.089488983154297 13.11430835723877 6.649523735046387 6.199978351593018 -9.350783348083496 2.1474435329437256 -9.70313549041748 16.391996383666992 -12.590703964233398 10.44499683380127 -22.389902114868164 -22.594398498535156 -0.0 0.0 -0.0 -0.0 0.0 -0.0 -0.0 0.0 -0.0 34.37630081176758 17.35308265686035 31.415706634521484 -14.832307815551758 -7.646037578582764 27.24399757385254 -0.4689880311489105 19.0922908782959 2.7882275581359863 -0.0 0.0 -0.0 -0.0 0.0 -0.0 -0.0 0.0 -0.0 7.73087739944458 5.47489595413208 0.41732463240623474 -0.0 0.0 -0.0 2.9054994583129883 0.9650753736495972 0.10300876200199127 -0.0 0.0 -0.0 10.278595924377441 0.7317469120025635 0.026285577565431595 -0.0 0.0 -0.0 2.221662759780884 -0.7335850596427917 -0.20831839740276337 -0.0 0.0 -0.0 -110.6259994506836 49.3119010925293 48.50629425048828 28.114595413208008 -39.758602142333984 -83.49128723144531 2.3876705169677734 -39.479434967041016 6.647464752197266 -0.0 0.0 -0.0 -0.0 0.0 -0.0 -0.0 0.0 -0.0 -7.73087739944458 5.47489595413208 -0.41732463240623474 -0.0 0.0 -0.0 -2.9054994583129883 0.9650753736495972 -0.10300876200199127 -0.0 0.0 -0.0 -10.278595924377441 0.7317469120025635 -0.026285577565431595 -0.0 0.0 -0.0 -2.221662759780884 -0.7335850596427917 0.20831839740276337 -0.0 0.0 -0.0 -52.2682991027832 -51.84319305419922 -40.01029586791992 -1.0470898151397705 59.28662109375 1.3927255868911743 0.22101612389087677 8.877616882324219 12.146086692810059 -0.0 0.0 -0.0 14.734619140625 3.6080548763275146 -0.3601231276988983 0.15996317565441132 51.550994873046875 -3.3808116912841797 12.334074020385742 -20.01041030883789 37.38489532470703
-0.3597899980377406 53.37039828300476 3.1601999886333942 6.802013874053955 33.162899017333984 1.490910530090332 -15.343597412109375 11.847092628479004 5.859572410583496 6.011313438415527 -9.085753440856934 1.9523080587387085 -9.748438835144043 16.434885025024414 -12.710195541381836 10.571993827819824 -22.528812408447266 -22.804597854614258 -0.0 0.0 -0.0 -0.0 0.0 -0.0 -0.0 0.0 -0.0 34.144500732421875 17.5978946685791 31.512298583984375 -14.70048713684082 -7.533821105957031 26.97450065612793 -0.4754903018474579 19.49725341796875 2.849653959274292 -0.0 0.0 -0.0 -0.0 0.0 -0.0 -0.0 0.0 -0.0 7.73087739944458 5.47489595413208 0.41732463240623474 -0.0 0.0 -0.0 2.9054994583129883 0.9650753736495972 0.10300876200199127 -0.0 0.0 -0.0 10.278595924377441 0.7317469120025635 0.026285577565431595 -0.0 0.0 -0.0 2.221662759780884 -0.7335850596427917 -0.20831839740276337 -0.0 0.0 -0.0 -110.03799438476562 49.834800720214844 48.22400665283203 28.180688858032227 -39.33070373535156 -82.7262954711914 2.095205545425415 -37.4424934387207 6.177165508270264 -0.0 0.0 -0.0 -0.0 0.0 -0.0 -0.0 0.0 -0.0 -7.73087739944458 5.47489595413208 -0.41732463240623474 -0.0 0.0 -0.0 -2.9054994583129883 0.9650753736495972 -0.10300876200199127 -0.0 0.0 -0.0 -10.278595924377441 0.7317469120025635 -0.026285577565431595 -0.0 0.0 -0.0 -2.221662759780884 -0.7335850596427917 0.20831839740276337 -0.0 0.0 -0.0 -53.38279724121094 -51.82649612426758 -42.50297927856445 -1.1343001127243042 60.643192291259766 1.4883167743682861 0.4661855697631836 7.638219833374023 12.007101058959961 -0.0 0.0 -0.0 15.991695404052734 4.0046257972717285 -0.9115407466888428 0.11768555641174316 49.46529769897461 -3.278592109680176 11.354884147644043 -19.2965030670166 36.439998626708984
-0.3911999985575676 53.39660048484802 3.8561999797821045 6.698988914489746 33.74330139160156 2.4677157402038574 -15.125593185424805 10.787797927856445 5.242537021636963 5.8550639152526855 -8.876999855041504 1.7883307933807373 -9.786604881286621 16.536897659301758 -12.787100791931152 10.488005638122559 -22.909896850585938 -22.966997146606445 -0.0 0.0 -0.0 -0.0 0.0 -0.0 -0.0 0.0 -0.0 34.0299072265625 17.587491989135742 31.71810531616211 -14.557577133178711 -7.413451194763184 26.682491302490234 -0.49162742495536804 19.912702560424805 2.914475440979004 -0.0 0.0 -0.0 -0.0 0.0 -0.0 -0.0 0.0 -0.0 7.73087739944458 5.47489595413208 0.41732463240623474 -0.0 0.0 -0.0 2.9054994583129883 0.9650753736495972 0.10300876200199127 -0.0 0.0 -0.0 10.278595924377441 0.7317469120025635 0.026285577565431595 -0.0 0.0 -0.0 2.221662759780884 -0.7335850596427917 -0.20831839740276337 -0.0 0.0 -0.0 -109.81999969482422 50.12610626220703 48.150691986083984 28.21359634399414 -39.074302673339844 -82.28339385986328 2.029639482498169 -36.95341110229492 6.069112777709961 -0.0 0.0 -0.0 -0.0 0.0 -0.0 -0.0 0.0 -0.0 -7.73087739944458 5.47489595413208 -0.41732463240623474 -0.0 0.0 -0.0 -2.9054994583129883 0.9650753736495972 -0.10300876200199127 -0.0 0.0 -0.0 -10.278595924377441 0.7317469120025635 -0.026285577565431595 -0.0 0.0 -0.0 -2.221662759780884 -0.7335850596427917 0.20831839740276337 -0.0 0.0 -0.0 -54.70530319213867 -52.045494079589844 -44.59070587158203 -1.217063069343567 61.84999465942383 1.5854510068893433 0.6400269269943237 6.659832000732422 11.80219554901123 -0.0 0.0 -0.0 16.521713256835938 4.431729793548584 -1.2448757886886597 0.08207850158214569 47.50099182128906 -3.1882755756378174 10.543136596679688 -18.57758331298828 35.77470397949219
